<svg xmlns="http://www.w3.org/2000/svg" xmlns:xlink="http://www.w3.org/1999/xlink" width="24" height="24" viewBox="0 0 24 24">
    <defs>
        <path id="a" d="M0 0h24v24H0z"/>
    </defs>
    <g fill="none" fill-rule="evenodd">
        <mask id="b" fill="#fff">
            <use xlink:href="#a"/>
        </mask>
        <g stroke="#231F20" stroke-width="2" mask="url(#b)">
            <path d="M12.003 14.087c.205.003.416.05.623.15.912.435 1.19 1.558 1.477 2.397.256.743.467 1.864 1.15 2.366.983.72 2.062-.366 2.488-1.186.612-1.188.425-2.825.624-4.126.348-2.287 1.784-4.356 1.622-6.664-.124-1.802-1.828-3.073-3.761-2.734-.96.168-1.806.677-2.75.893-1.038.237-1.79.23-2.832.012-.989-.205-1.872-.73-2.87-.905-1.933-.339-3.637.932-3.762 2.734-.16 2.308 1.275 4.377 1.623 6.664.198 1.301.011 2.938.625 4.126.592 1.148 2.146 2.047 3.054.656.694-1.062.446-2.472 1.16-3.52.35-.51.92-.876 1.529-.863z"/>
        </g>
    </g>
</svg>
