<svg xmlns="http://www.w3.org/2000/svg" xmlns:xlink="http://www.w3.org/1999/xlink" width="94" height="20" viewBox="0 0 94 20">
    <defs>
        <path id="a" d="M65 13.908V.132H.032v13.776z"/>
    </defs>
    <g fill="none" fill-rule="evenodd">
        <g transform="translate(28 3)">
            <mask id="b" fill="#fff">
                <use xlink:href="#a"/>
            </mask>
            <path fill="#000" d="M58.36 8.002c0-.197.042-.396.129-.599.086-.203.211-.389.377-.56.166-.17.375-.31.627-.421.251-.111.543-.167.874-.167.332 0 .617.056.855.167.24.111.438.252.597.422.159.17.278.356.358.56.08.202.119.401.119.598h-3.937zm5.268 2.786c-.212.157-.55.344-1.014.56-.464.215-1.067.323-1.81.323-.755 0-1.348-.186-1.779-.559-.43-.373-.653-.808-.666-1.305H65v-.47c0-.773-.1-1.483-.298-2.13a4.7 4.7 0 0 0-.885-1.668 4.089 4.089 0 0 0-1.441-1.09c-.57-.26-1.233-.392-1.989-.392-.755 0-1.431.135-2.028.403-.596.268-1.1.624-1.51 1.07a4.615 4.615 0 0 0-.945 1.56 5.334 5.334 0 0 0-.328 1.854c0 .732.115 1.403.348 2.011.231.608.57 1.129 1.014 1.56.444.432.984.769 1.62 1.01.636.243 1.352.364 2.147.364.597 0 1.127-.056 1.59-.167a7.608 7.608 0 0 0 1.204-.383 4.44 4.44 0 0 0 .825-.441c.212-.15.371-.258.477-.324l-1.173-1.786zm-31.69.334c-.186.13-.384.245-.596.343a1.786 1.786 0 0 1-.756.147c-.384 0-.666-.12-.845-.363-.179-.242-.268-.585-.268-1.03V6.59h2.406V4.37h-2.406V1.905H26.61v2.466h-1.476V6.59h1.476v3.473c0 .576.06 1.1.179 1.57.119.471.318.873.596 1.207a2.81 2.81 0 0 0 1.094.785c.45.19 1.007.284 1.67.284 1.06 0 2.041-.353 2.942-1.06l-1.153-1.726zM56.725 1.094a3.763 3.763 0 0 0-1.412-.746 5.693 5.693 0 0 0-1.53-.216c-.478 0-.945.076-1.402.226-.458.15-.865.38-1.223.687a3.404 3.404 0 0 0-.865 1.167c-.219.471-.328 1.034-.328 1.688v.471h-1.511V6.59h1.51v6.986h2.844V6.589h2.207V4.37h-2.207v-.51c0-.458.12-.811.358-1.06.239-.248.557-.373.954-.373a2.398 2.398 0 0 1 1.392.451l1.213-1.785zM44.142 13.575h2.863V4.371h-2.863v9.204zm-9.979 0h8.724v-2.424h-5.722V.486h-3.002v13.089zM17.808 8.002c0-.197.043-.396.13-.599.085-.203.21-.389.377-.56.165-.17.374-.31.626-.421.252-.111.543-.167.875-.167.331 0 .616.056.855.167.239.111.437.252.597.422.159.17.278.356.357.56.08.202.12.401.12.598h-3.937zm5.269 2.786c-.212.157-.55.344-1.014.56-.464.215-1.067.323-1.81.323-.755 0-1.349-.186-1.779-.559-.43-.373-.653-.808-.666-1.305h6.64v-.47c0-.773-.099-1.483-.298-2.13a4.7 4.7 0 0 0-.884-1.668 4.087 4.087 0 0 0-1.442-1.09c-.57-.26-1.232-.392-1.988-.392s-1.432.135-2.028.403c-.596.268-1.1.624-1.511 1.07a4.613 4.613 0 0 0-.945 1.56 5.337 5.337 0 0 0-.328 1.854c0 .732.116 1.403.348 2.011.232.608.57 1.129 1.014 1.56a4.67 4.67 0 0 0 1.62 1.01c.637.243 1.353.364 2.148.364.596 0 1.126-.056 1.59-.167a7.614 7.614 0 0 0 1.204-.383 4.44 4.44 0 0 0 .825-.441c.212-.15.37-.258.477-.324l-1.173-1.786zM.032 13.575h2.863l.338-8.497 2.903 5.043h1.55l2.745-5.102.377 8.556h3.003L13.194.485h-2.863l-3.38 6.143L3.491.486H.65L.032 13.575zM45.573 3.319c-.884 0-1.614-.72-1.614-1.593S44.69.132 45.573.132c.907 0 1.614.699 1.614 1.594 0 .872-.73 1.593-1.614 1.593z" mask="url(#b)"/>
        </g>
        <path fill="#A3CD4D" d="M10 6.481a17.506 17.506 0 0 1 3.62 10.677c0 .967-.08 1.916-.231 2.842h6.576A1.03 1.03 0 0 0 21 18.975V1.027c0-.669-.638-1.163-1.292-.993A17.925 17.925 0 0 0 10 6.48"/>
        <path fill="#0090DA" d="M7.611 20a17.65 17.65 0 0 1-.23-2.842C7.38 13.148 8.729 9.45 11 6.48A17.925 17.925 0 0 0 1.292.034 1.032 1.032 0 0 0 0 1.027v17.948A1.03 1.03 0 0 0 1.035 20h6.576z"/>
        <path fill="#0060A0" d="M10.5 6C8.304 9.074 7 12.904 7 17.056c0 1.003.077 1.985.223 2.944h6.554c.146-.959.223-1.941.223-2.944C14 12.904 12.696 9.074 10.5 6"/>
    </g>
</svg>
